<svg xmlns="http://www.w3.org/2000/svg" width="200" height="200" viewBox="0 0 200 200"><defs><style>.a,.b{fill:#333;}.b{fill-rule:evenodd;}</style></defs><path class="a" d="M100,0A100,100,0,1,1,29.3,29.3,99.69,99.69,0,0,1,100,0Zm65.2,34.8a92.22,92.22,0,1,0,27,65.2,91.81,91.81,0,0,0-27-65.2Z"/><path class="b" d="M60.6,103.3H76.9c3.7,0,9.9,1.6,9.9,8.5,0,3.7-2.9,7.9-6.5,7.9H60.6Zm52.6-32.9h29.5v9.8H113.2Zm25.5,32.9H117.1A10.64,10.64,0,0,1,128,93.6c5.7-.1,9.9,3.9,10.7,9.7Zm-22.3,6.5h36.2v-1.6c0-13.6-9.8-24.6-24.6-24.6s-24.6,11.1-24.6,24.6c0,13.7,9.7,24.6,24.6,24.6s21.9-8.5,24.1-19.8H138.8c-1.2,5.8-4.6,9.9-10.7,9.9-6.4.1-11.2-5.7-11.7-13.1Zm-16.3,3.3A16.51,16.51,0,0,0,88.9,97.7a16.69,16.69,0,0,0,7.8-14.1A16.45,16.45,0,0,0,80.4,67.2h-33v65.7H80.3a20,20,0,0,0,19.8-19.8ZM76.9,93.5H60.6V80.2H76.9a6.62,6.62,0,0,1,6.6,6.7,6.53,6.53,0,0,1-6.6,6.6Z"/></svg>