<svg xmlns="http://www.w3.org/2000/svg" width="200" height="200" viewBox="0 0 200 200"><defs><style>.a,.b{fill:#333;}.b{fill-rule:evenodd;}</style></defs><path class="a" d="M100,0A100,100,0,1,1,29.3,29.3,99.69,99.69,0,0,1,100,0Zm65.2,34.8a92.22,92.22,0,1,0,27,65.2,91.81,91.81,0,0,0-27-65.2Z"/><path class="b" d="M100,48.3A53,53,0,0,0,83.2,151.6c2.7.5,3.6-1.2,3.6-2.6s0-4.6-.1-9c-14.7,3.2-17.9-7.1-17.9-7.1-2.4-6.1-5.9-7.8-5.9-7.8-4.8-3.3.4-3.2.4-3.2,5.3.4,8.1,5.5,8.1,5.5,4.7,8.1,12.4,5.8,15.4,4.4a11.55,11.55,0,0,1,3.4-7.1c-11.8-1.3-24.1-5.9-24.1-26.2a20.39,20.39,0,0,1,5.5-14.2c-.5-1.3-2.4-6.7.5-14,0,0,4.4-1.4,14.6,5.4A49.07,49.07,0,0,1,100,73.9a49.61,49.61,0,0,1,13.3,1.8c10.1-6.9,14.6-5.4,14.6-5.4,2.9,7.3,1.1,12.7.5,14a20.31,20.31,0,0,1,5.4,14.2c0,20.4-12.4,24.8-24.2,26.2,1.9,1.6,3.6,4.9,3.6,9.8,0,7.1-.1,12.8-.1,14.5,0,1.4,1,3.1,3.6,2.5A53,53,0,0,0,100,48.3Z"/></svg>