<svg xmlns="http://www.w3.org/2000/svg" width="200" height="200" viewBox="0 0 200 200"><defs><style>.a,.b{fill:#333;}.b{fill-rule:evenodd;}</style></defs><path class="a" d="M100,0A100,100,0,1,1,29.3,29.3,99.51,99.51,0,0,1,100,0Zm65.2,34.8a92.22,92.22,0,1,0,27,65.2,92,92,0,0,0-27-65.2Z"/><path class="b" d="M74.4,100A25.6,25.6,0,1,1,100,125.6,25.65,25.65,0,0,1,74.4,100Zm52.1-50.1H73.6A23.75,23.75,0,0,0,49.9,73.6v52.9a23.82,23.82,0,0,0,23.7,23.7h52.9a23.75,23.75,0,0,0,23.7-23.7V73.6a23.75,23.75,0,0,0-23.7-23.7ZM73.6,55.8h52.9a17.84,17.84,0,0,1,17.8,17.8v52.9a17.84,17.84,0,0,1-17.8,17.8H73.6a17.84,17.84,0,0,1-17.8-17.8V73.6A17.84,17.84,0,0,1,73.6,55.8Zm58.1,7.5a5.2,5.2,0,1,0,5.2,5.2,5.16,5.16,0,0,0-5.2-5.2Zm.6,36.7A32.3,32.3,0,1,0,100,132.3,32.35,32.35,0,0,0,132.3,100Z"/></svg>