<svg xmlns="http://www.w3.org/2000/svg" width="200" height="200" viewBox="0 0 200 200"><defs><style>.a,.b{fill:#333;}.b{fill-rule:evenodd;}</style></defs><path class="a" d="M100,0A100,100,0,1,1,29.3,29.3,99.69,99.69,0,0,1,100,0Zm65.2,34.8a92.22,92.22,0,1,0,27,65.2,91.81,91.81,0,0,0-27-65.2Z"/><path class="b" d="M54.9,100.9v44.2h21V84.9h-21Zm89.7,2.5c-1.4-11.4-6.6-18.5-22-18.5-9,0-15.1,3.3-17.7,8.1h-.3V84.9H87.9v60.2h17.6V115.3c0-7.9,1.6-15.4,11.2-15.4s10.4,9,10.4,16v29.3h18.1V112.1a77.55,77.55,0,0,0-.6-8.7ZM65.4,54.9A10.5,10.5,0,1,0,75.9,65.4,10.5,10.5,0,0,0,65.4,54.9Z"/></svg>