<?xml version="1.0" encoding="utf-8"?>
<!-- Generator: Adobe Illustrator 22.0.1, SVG Export Plug-In . SVG Version: 6.00 Build 0)  -->
<svg version="1.1" id="Layer_1" xmlns="http://www.w3.org/2000/svg" xmlns:xlink="http://www.w3.org/1999/xlink" x="0px" y="0px"
	 viewBox="0 0 1260 1265.6" style="enable-background:new 0 0 1260 1265.6;" xml:space="preserve">
<style type="text/css">
	.st0{clip-path:url(#SVGID_2_);}
	.st1{display:none;}
	.st2{font-family:'Jaapokkisubtract-Regular';}
	.st3{font-size:256px;}
	.st4{letter-spacing:196;}
</style>
<g>
	<defs>
		<circle id="SVGID_1_" cx="630" cy="450" r="450"/>
	</defs>
	<clipPath id="SVGID_2_">
		<use xlink:href="#SVGID_1_"  style="overflow:visible;"/>
	</clipPath>
	<g id="logo" class="st0">
		<g id="jiang">
			<polygon points="181,480 180,480 180,540 189,540 250.4,540 300,540 480,540 480,480 241.1,480 			"/>
			<path d="M1079,480h-60.1H660h-60h-60v60h60v298.9c-20.5-1.6-40.5-4.7-60-9.3V891c19.6,4,39.6,6.7,60,8v0h0c9.9,0.7,19.9,1,30,1
				s20.1-0.3,30-1h0v0c182.8-12,335.8-133.2,394.4-299h-64.3H900h-60v0H720c0,33.1,26.9,60,60,60v0h178.7
				C894.5,760.3,785.5,829.3,660,838.9V540h240h109.6h61.4h8h1v-60H1079z"/>
			<path d="M348.6,720H270c9.4,12.5,19.4,24.5,30,35.9V780h24.1c44.5,41.3,97.5,73.7,155.9,94.4v-64.3V780v-60H360H348.6z"/>
			<path d="M360,600h-60h-30.1h-64.3c7.3,20.7,16.2,40.8,26.3,60h69.4H360h60c33.1,0,60-26.9,60-60h-60H360z"/>
		</g>
		<path d="M1071,360C1039.4,204.3,927.5,77.9,780.4,25.7V-0.4h-60V0H720v9v61.4V240v60h0.4H780h0.4H840h60c0-33.1-26.9-60-60-60
			h-59.6V90c113.9,47.6,200.3,147.7,229.2,270H840h-59.6H780h-59.6H720h-60V120V61.1V1V0h-60v1v60.2V120v240h-60h-60H250.4
			C279.4,237.6,366,137.4,480,89.9V240h-60c-33.1,0-60,26.9-60,60h60h60h60v-60V120V70.4V9V0h-60v25.6
			C332.7,77.7,220.6,204.2,189,360h-9v60h1h60.1H480h60h60h60h358.9h60.1h1v-60H1071z"/>
	</g>
</g>
<g id="SHAN">
	<path d="M65,1186c-5.9-1.5-16.9-4.4-27.1-11.3c-14.3-9.5-22.3-23.3-23-40.4c-0.8-14.3,3.8-26.9,13.1-36.6
		c13.3-13.8,32.5-17.7,41.7-17.7c26.1,0,40.7,9.5,53.8,17.9l5.9,3.8l-18.7,30.5l-6.4-4.1c-11.5-7.4-18.9-12.3-34.6-12.3
		c-2.3,0-11.3,1.8-15.9,6.7c-1.5,1.5-3.3,4.4-3.1,10.2c0.3,9.2,6.7,14.3,23,18.4c2,0.5,3.6,1,5.1,1.5c17.2,5.9,30.5,13.8,39.7,23.8
		c9.2,10.2,14.1,22.3,14.1,35.1c0,12.5-5.4,25.6-14.3,35.6c-10.5,11.8-25.1,18.4-41.2,18.4c-7.9,0-18.7-0.5-31.5-4.4
		c-16.1-5.1-30.5-14.1-42.8-27.1l26.1-24.6c18.9,20.2,40.2,20.2,48.1,20.2c14.8,0,19.7-13.6,19.7-18.2c0-9.7-11-18.7-29.7-25.1
		l-0.8-0.3L65,1186z"/>
	<path d="M459.5,1082.8h35.8V1262h-35.8v-74.8h-66.3v74.8h-35.8v-179.2h35.8v68.6h66.3V1082.8z"/>
	<path d="M811.8,1082.6l84.7,179.5h-39.7L805.6,1153L750.1,1262h-40.2l91.4-179.5H811.8z"/>
	<path d="M1247.7,1262l-100.9-104.7V1262H1111v-179.5h11.3l99.1,100.4v-100.4h35.8V1262H1247.7z"/>
</g>
<text transform="matrix(1 0 0 1 -216.5295 828)" class="st1 st2 st3 st4">SHAN</text>
</svg>
